<svg width="128" height="128" viewBox="0 0 128 128" fill="none" xmlns="http://www.w3.org/2000/svg">
<mask id="m" style="mask-type:alpha" maskUnits="userSpaceOnUse" x="0" y="0" width="128" height="128">
<circle cx="64" cy="64" r="64" fill="#FFF"/>
</mask>
<g mask="url(#m)">
<circle cx="64" cy="64" r="64" fill="#4224B9"/>
<rect x="35" y="35" width="58" height="58" stroke="#FFF" stroke-width="2"/>
<rect x="31" y="-1" width="8" height="130" fill="#4224B9" stroke="#FFF" stroke-width="2"/>
<rect x="89" y="-1" width="8" height="130" fill="#4224B9" stroke="#FFF" stroke-width="2"/>
<rect y="40" width="128" height="49" fill="#4224B9"/>
<path d="M17.336 63.56L24.898 45.776H21.554L13.954 63.56L21.554 81.344H24.898L17.336 63.56ZM11.978 63.56L19.54 45.776H16.196L8.59601 63.56L16.196 81.344H19.54L11.978 63.56Z" fill="#FFF"/>
<path d="M42.606 46.536C42.758 47.714 42.834 49.196 42.834 51.134V75.454C42.834 76.176 42.454 76.366 41.2 76.366C39.718 76.366 38.122 76.214 35.766 75.872C36.45 77.468 36.754 78.608 36.982 80.318C38.806 80.432 40.402 80.508 41.846 80.508C43.936 80.508 45.038 80.318 45.798 79.862C46.862 79.254 47.356 78.114 47.356 76.29V51.172C47.356 49.196 47.432 47.714 47.584 46.536H42.606ZM51.612 55.618C52.372 58.468 52.752 59.95 52.79 60.102C54.424 65.802 56.362 69.944 59.554 74.504C60.58 73.44 61.872 72.414 63.392 71.54C60.922 68.234 59.136 64.928 57.73 61.052C56.742 58.392 56.248 56.378 55.982 54.364L51.612 55.618ZM33.448 54.516C32.992 60.254 30.446 66.828 26.798 71.844C28.166 72.528 29.268 73.25 30.826 74.542C34.322 69.108 35.918 65.042 37.666 57.062C37.78 56.644 37.78 56.606 37.894 56.15C37.932 56.036 37.97 55.884 38.046 55.694L33.448 54.516Z" fill="#FFF"/>
<path d="M83.95 65.574C83.912 68.348 83.76 69.868 83.342 71.502C82.696 74.162 81.29 76.062 78.706 77.772V71.502C78.706 70.172 78.744 69.488 78.82 68.766C78.174 68.842 77.794 68.88 76.54 68.88H69.624C68.446 68.88 67.838 68.842 67.078 68.728C67.192 69.754 67.23 70.552 67.23 71.692V77.354C67.23 78.532 67.154 79.9 67.04 81.078H70.954V79.14H75.134V80.318H78.782C78.744 79.786 78.744 79.52 78.706 78.836C79.618 79.71 80.112 80.28 80.91 81.382C86.116 77.506 87.56 74.314 87.826 65.574H90.258V77.468C90.258 80.052 91.17 80.698 94.97 80.698C97.858 80.698 99.112 80.356 99.796 79.406C100.48 78.456 100.708 77.278 100.974 73.174C99.872 72.908 98.846 72.452 97.402 71.578V72.908C97.402 74.998 97.25 76.214 96.908 76.594C96.756 76.784 96.262 76.936 95.654 76.936C94.4 76.936 94.134 76.784 94.134 76.062V65.574H96.262C97.288 65.574 97.858 65.612 99.112 65.726C99.036 64.814 98.998 64.206 98.998 63.104V56.264C98.998 55.2 99.036 54.478 99.112 53.452C98.162 53.566 97.364 53.604 96.072 53.604H94.97C95.882 52.046 96.3 51.172 97.972 47.334L93.716 45.966C92.842 49.12 92.044 51.096 90.676 53.604H83.722C82.316 53.604 81.594 53.566 80.53 53.452C80.644 54.25 80.682 55.39 80.682 56.416V62.99C80.682 64.054 80.644 64.852 80.568 65.726C81.708 65.612 82.316 65.574 83.38 65.574H83.95ZM70.878 72.148H75.134V75.72H70.878V72.148ZM84.482 57.366H94.932V61.85H84.482V57.366ZM67.268 50.83C68.218 50.716 69.016 50.678 70.346 50.678H75.628C76.996 50.678 77.68 50.716 78.706 50.83V47.03C77.718 47.182 77.11 47.22 75.628 47.22H70.346C68.826 47.22 68.218 47.182 67.268 47.03V50.83ZM65.786 56.378C66.698 56.264 67.496 56.226 68.826 56.226H76.616C78.212 56.226 78.706 56.264 79.504 56.378V52.464C78.668 52.578 78.022 52.616 76.464 52.616H68.826C67.42 52.616 66.698 52.578 65.786 52.426V56.378ZM67.268 61.698C67.99 61.622 68.484 61.584 69.662 61.584H76.274C77.376 61.584 77.87 61.622 78.592 61.698V58.164C77.946 58.24 77.49 58.278 76.274 58.278H69.662C68.522 58.278 67.952 58.24 67.268 58.164V61.698ZM67.268 67.056C67.99 66.98 68.484 66.942 69.624 66.942H76.198C77.376 66.942 77.908 66.98 78.592 67.056V63.522C77.946 63.598 77.452 63.636 76.236 63.636H69.662C68.522 63.636 67.952 63.598 67.268 63.522V67.056ZM88.396 51.59C87.37 49.234 86.876 48.322 85.318 46.004L81.594 47.79C83.076 49.88 83.874 51.324 84.71 53.49L88.396 51.59Z" fill="#FFF"/>
<path d="M110.664 63.56L103.14 81.344H106.484L114.084 63.56L106.484 45.776H103.14L110.664 63.56ZM116.022 63.56L108.498 81.344H111.842L119.442 63.56L111.842 45.776H108.498L116.022 63.56Z" fill="#FFF"/>
</g>
</svg>
